<?xml version="1.0" standalone="no"?>
<!DOCTYPE svg PUBLIC "-//W3C//DTD SVG 20010904//EN"
 "http://www.w3.org/TR/2001/REC-SVG-20010904/DTD/svg10.dtd">
<svg version="1.0" xmlns="http://www.w3.org/2000/svg"
 width="514.000000pt" height="475.000000pt" viewBox="0 0 514.000000 475.000000"
 preserveAspectRatio="xMidYMid meet">
<metadata>
Created by potrace 1.16, written by Peter Selinger 2001-2019
</metadata>
<g transform="translate(0.000000,475.000000) scale(0.100000,-0.100000)"
fill="#000000" stroke="none">
<path d="M1792 4648 c-9 -9 -12 -114 -12 -413 l0 -400 -145 -145 c-128 -128
-145 -149 -145 -178 0 -39 23 -87 45 -96 22 -8 77 -7 91 2 7 4 233 226 503
495 271 268 497 487 504 487 6 0 235 -223 507 -495 455 -455 498 -495 529
-495 66 0 121 58 107 114 -3 13 -56 73 -118 132 -158 153 -830 818 -895 885
-61 64 -118 95 -158 85 -17 -4 -145 -122 -333 -306 -169 -164 -309 -296 -311
-294 -3 3 -5 140 -6 305 -1 284 -2 302 -20 315 -23 17 -126 19 -143 2z"/>
<path d="M2623 4266 c4 -10 3 -15 -3 -11 -9 6 -154 -133 -597 -570 l-182 -180
-2 -675 c-1 -760 -6 -716 75 -787 62 -55 105 -63 318 -63 l170 0 -3 413 -4
412 30 55 c44 80 113 120 207 120 49 0 80 -6 108 -20 46 -23 54 -25 44 -7 -4
7 -3 9 2 4 5 -5 9 -12 9 -15 0 -4 13 -24 28 -44 54 -71 57 -96 57 -525 l0
-395 183 4 c166 3 186 5 229 26 58 29 96 66 119 117 17 38 19 81 19 705 l0
665 -198 198 c-109 109 -202 194 -207 190 -4 -4 -5 -3 -2 4 8 13 -362 375
-375 367 -5 -3 -7 0 -6 7 2 6 -3 14 -11 17 -10 3 -12 0 -8 -12z"/>
<path d="M100 1144 l0 -496 263 4 c256 4 263 4 317 29 185 86 226 317 79 443
-24 20 -51 36 -61 36 -10 0 -18 2 -18 4 0 2 20 23 44 47 61 61 85 137 68 217
-16 76 -57 130 -123 165 -75 38 -143 47 -371 47 l-198 0 0 -496z m434 312 c99
-41 84 -186 -22 -216 -20 -5 -81 -10 -134 -10 l-98 0 0 120 0 120 110 0 c72 0
122 -5 144 -14z m46 -396 c97 -50 101 -163 7 -220 -28 -17 -51 -20 -169 -20
l-138 0 0 130 0 130 130 0 c111 0 137 -3 170 -20z"/>
<path d="M1030 1145 l0 -495 90 0 90 0 0 495 0 495 -90 0 -90 0 0 -495z"/>
<path d="M1430 1146 l0 -496 95 0 95 0 0 190 0 190 68 0 67 -1 36 -62 c20 -34
71 -119 114 -189 l77 -128 109 0 c60 0 109 3 109 7 0 6 -138 227 -205 330
l-35 51 31 7 c16 4 56 31 89 61 72 67 95 124 94 231 -2 131 -73 233 -195 280
-36 14 -90 17 -296 21 l-253 4 0 -496z m455 306 c63 -21 95 -65 95 -129 0
-107 -44 -133 -229 -133 l-131 0 0 140 0 140 108 0 c74 -1 122 -6 157 -18z"/>
<path d="M2390 1145 l0 -497 258 4 257 3 67 33 c39 19 81 50 101 72 112 131
75 336 -71 397 l-33 14 32 26 c74 63 102 200 58 290 -11 24 -39 58 -61 77 -72
62 -105 69 -370 74 l-238 4 0 -497z m439 306 c66 -34 79 -117 27 -178 -19 -22
-35 -28 -92 -34 -38 -5 -97 -8 -131 -8 l-63 -1 0 120 0 120 110 0 c90 0 118
-4 149 -19z m40 -389 c104 -52 101 -183 -5 -228 -19 -8 -79 -14 -160 -15
l-129 -1 -3 131 -3 131 133 0 c107 0 140 -3 167 -18z"/>
<path d="M3337 1633 c-4 -3 -7 -226 -7 -495 l0 -488 95 0 95 0 0 288 1 287 57
-62 c31 -34 151 -164 266 -288 l210 -225 52 0 53 0 1 495 1 496 -93 -3 -93 -3
-2 -300 c-2 -165 -3 -303 -3 -308 0 -7 -40 35 -181 189 -330 362 -391 424
-418 424 -15 0 -31 -3 -34 -7z"/>
<path d="M4398 1634 c-5 -4 -8 -227 -8 -496 l0 -488 238 0 c258 0 318 8 391
54 82 52 121 125 121 228 0 101 -39 171 -118 215 l-47 26 42 43 c59 61 81 134
65 212 -17 83 -55 130 -136 172 l-69 35 -236 3 c-130 2 -239 0 -243 -4z m408
-175 c57 -15 84 -48 84 -103 0 -97 -46 -126 -202 -126 l-108 0 0 120 0 120 91
0 c49 0 110 -5 135 -11z m45 -389 c82 -23 123 -119 79 -188 -32 -51 -70 -62
-220 -62 l-130 0 0 130 0 130 118 0 c64 0 133 -5 153 -10z"/>
<path d="M1122 353 c-40 -20 -60 -47 -62 -88 -4 -55 0 -66 29 -96 23 -23 38
-29 71 -29 79 0 123 40 122 111 -1 49 -16 75 -55 99 -39 24 -62 25 -105 3z
m102 -36 c9 -7 20 -31 23 -52 11 -83 -75 -128 -132 -70 -51 50 -17 135 54 135
20 0 45 -6 55 -13z"/>
<path d="M2322 358 c-85 -23 -97 -170 -17 -206 73 -33 164 11 165 81 0 26 -1
27 -60 27 -46 0 -60 -3 -60 -14 0 -11 14 -16 46 -18 l46 -3 -22 -27 c-26 -34
-87 -39 -113 -10 -41 45 -28 123 24 141 33 11 51 7 91 -21 29 -20 49 -8 27 18
-27 33 -79 46 -127 32z"/>
<path d="M2693 350 c-34 -21 -63 -66 -63 -100 0 -29 26 -76 52 -94 41 -29 122
-14 158 29 18 22 -1 42 -21 22 -41 -41 -98 -48 -129 -17 -24 24 -27 86 -4 118
20 30 81 30 118 1 31 -25 43 -20 26 11 -11 21 -65 50 -92 50 -7 0 -27 -9 -45
-20z"/>
<path d="M2955 356 c-55 -24 -81 -80 -64 -140 14 -49 51 -76 106 -76 38 0 50
5 79 34 28 28 34 41 34 78 0 52 -21 85 -66 104 -40 17 -50 17 -89 0z m105 -53
c17 -21 20 -36 16 -63 -15 -98 -156 -90 -156 9 0 76 94 113 140 54z"/>
<path d="M1350 249 l0 -111 66 4 c60 4 70 7 95 36 33 37 38 85 14 133 -19 37
-50 49 -121 49 l-54 0 0 -111z m130 63 c17 -14 23 -29 23 -60 0 -57 -15 -72
-74 -72 l-49 0 0 75 0 75 39 0 c23 0 48 -8 61 -18z"/>
<path d="M1635 338 c-31 -27 -45 -80 -33 -125 19 -74 119 -99 178 -45 16 15
33 42 36 60 l7 32 -62 0 c-48 0 -61 -3 -61 -15 0 -12 10 -15 40 -13 52 3 58
-5 27 -36 -34 -34 -80 -34 -112 -1 -32 31 -34 86 -5 115 27 27 89 27 123 0 37
-29 49 -4 13 27 -38 32 -114 32 -151 1z"/>
<path d="M1997 353 c-4 -3 -7 -53 -7 -110 0 -84 3 -103 15 -103 11 0 15 18 17
83 l3 82 53 -77 c85 -122 102 -118 102 28 0 86 -3 104 -15 104 -12 0 -15 -16
-15 -80 0 -44 -3 -80 -7 -80 -5 1 -32 37 -62 80 -51 75 -68 90 -84 73z"/>
<path d="M3175 347 c-3 -7 -4 -56 -3 -108 2 -76 6 -94 18 -94 12 0 15 14 15
67 0 36 3 69 6 72 6 6 31 -46 59 -118 9 -26 40 -27 40 -2 0 6 13 38 29 71 l29
60 1 -77 c1 -62 4 -78 16 -78 12 0 15 19 15 111 0 109 0 110 -22 107 -18 -2
-29 -19 -52 -75 -17 -40 -33 -73 -36 -73 -4 0 -22 33 -41 72 -33 70 -63 96
-74 65z"/>
<path d="M3487 353 c-4 -3 -7 -53 -7 -110 0 -95 1 -103 19 -103 16 0 20 8 23
38 3 37 4 37 50 40 37 2 52 9 68 29 26 34 25 59 -5 88 -20 21 -34 25 -83 25
-32 0 -62 -3 -65 -7z"/>
<path d="M3727 268 c-19 -51 -39 -101 -42 -111 -5 -13 -2 -17 13 -17 13 0 22
9 26 25 5 19 13 25 34 26 15 1 37 3 49 4 16 2 25 -5 32 -26 10 -28 41 -41 41
-16 -1 6 -18 55 -38 107 -52 131 -66 132 -115 8z"/>
<path d="M3942 253 c3 -92 5 -108 20 -111 15 -3 18 7 20 73 l3 77 50 -69 c52
-72 63 -83 83 -83 9 0 12 29 12 110 0 91 -3 110 -15 110 -12 0 -15 -15 -15
-75 0 -41 -3 -75 -7 -75 -5 0 -33 34 -63 75 -33 45 -62 75 -73 75 -16 0 -17
-10 -15 -107z"/>
</g>
</svg>
